<svg width="79" height="87" viewBox="0 0 79 87" fill="none" xmlns="http://www.w3.org/2000/svg">
<mask id="mask0_1_27" style="mask-type:luminance" maskUnits="userSpaceOnUse" x="0" y="0" width="79" height="87">
<path d="M1.18475 0.836225L0.758227 85.7512L77.7313 86.1378L78.1578 1.22285L1.18475 0.836225Z" fill="white"/>
</mask>
<g mask="url(#mask0_1_27)">
<path d="M20.5408 2.68727L35.8152 11.6051C35.5723 11.7769 35.3135 11.9366 35.0746 12.1204C35.0405 12.1432 35.0053 12.177 34.9742 12.1999C34.9431 12.2227 34.8738 12.2684 34.8247 12.2991C34.315 12.6426 33.7951 13.009 33.2972 13.3985C33.251 13.4322 33.1968 13.478 33.1466 13.5127L32.5563 13.9588C32.1287 14.2796 31.689 14.6234 31.2722 14.9783C31.2371 15.0011 31.2139 15.036 31.1798 15.0589C30.979 15.2189 30.7862 15.3799 30.5893 15.5559C30.5555 15.5791 30.5241 15.6059 30.4959 15.6354C30.0943 15.9564 29.6745 16.3113 29.2806 16.6783L29.2465 16.7132C29.0606 16.8732 28.8758 17.0343 28.702 17.2054C28.2731 17.5723 27.8451 17.9741 27.4511 18.3752C27.3817 18.4438 27.3124 18.5015 27.2431 18.5741C27.0803 18.7233 26.9416 18.8726 26.8028 19.0219C26.5938 19.2209 26.4009 19.3999 26.2119 19.607C26.0611 19.7552 25.9103 19.9165 25.7715 20.0768C25.7257 20.1156 25.6831 20.1578 25.6439 20.2031C25.4348 20.4211 25.2267 20.639 25.0406 20.8571C24.9832 20.9258 24.9139 20.9835 24.8556 21.0562C24.543 21.3776 24.2412 21.7221 23.9506 22.0516C23.7765 22.2578 23.6026 22.4499 23.4405 22.6601C23.4174 22.683 23.4053 22.7059 23.3822 22.7288C22.9879 23.1758 22.6057 23.6249 22.2453 24.0951C22.1879 24.1748 22.1185 24.2555 22.049 24.3471C21.573 24.9447 21.12 25.5425 20.6789 26.1503C20.4353 26.483 20.1915 26.8278 19.9478 27.1726C19.7041 27.5174 19.4723 27.8612 19.2426 28.2061C19.0129 28.5509 18.7781 28.9037 18.5573 29.2636C18.3365 29.6235 18.1038 29.9614 17.8949 30.3323C17.6621 30.6882 17.4533 31.0441 17.2435 31.4121C17.0336 31.78 16.8248 32.136 16.627 32.509C16.4291 32.882 16.2233 33.245 16.0213 33.624C15.8194 34.0029 15.6376 34.372 15.4507 34.7511C15.2415 35.1761 15.0315 35.59 14.8333 36.016C14.5654 36.5907 14.3095 37.1664 14.0526 37.7521C13.8199 38.293 13.5981 38.8499 13.3753 39.3977C13.037 40.2601 12.7106 41.1344 12.4171 42.021C12.2537 42.5041 12.0903 42.9873 11.9378 43.4826L11.9257 43.4935C11.8555 43.7352 11.7732 43.9928 11.703 44.2304C11.302 44.4364 10.8938 44.6533 10.4897 44.8703C10.4546 44.8931 10.4085 44.9159 10.3744 44.9387C9.50704 45.4064 8.66256 45.8982 7.8189 46.4259C7.77278 46.4487 7.72661 46.4835 7.68049 46.5062C7.28728 46.7463 6.89399 47.0023 6.51269 47.2614C6.08431 47.5352 5.66792 47.8101 5.26348 48.0961C4.85904 48.3821 4.44159 48.669 4.03709 48.966C3.6326 49.2629 3.22715 49.5499 2.83259 49.8599C2.46215 50.1461 2.10376 50.4213 1.74432 50.7075C1.71117 50.7315 1.68025 50.7584 1.65191 50.788L1.61774 50.8228C1.60562 50.8458 1.59462 50.8457 1.58257 50.8567C1.55886 50.8654 1.53849 50.8814 1.52434 50.9024C1.51328 50.9143 1.50122 50.9252 1.49022 50.9252L1.47816 50.9371C1.29341 51.0862 1.11966 51.2353 0.934913 51.3834L1.12377 13.7839C1.13013 11.516 1.73427 9.28979 2.87531 7.3298C4.01635 5.3698 5.65395 3.74531 7.62301 2.61999C9.59207 1.49476 11.823 0.908463 14.0909 0.920254C16.3589 0.932046 18.5835 1.54152 20.5408 2.68727Z" fill="url(#paint0_linear_1_27)"/>
<path d="M11.698 44.2206C11.6278 44.4622 11.5575 44.7039 11.4943 44.9456C9.96714 50.2133 9.18308 55.6685 9.1649 61.1531C9.15064 63.8554 9.31816 66.5557 9.66631 69.2357C9.78868 70.1583 9.92216 71.058 10.0796 71.9578C10.1019 72.0969 10.1352 72.2461 10.1575 72.3852C10.3523 73.4122 10.5623 74.4153 10.7993 75.4195C10.8018 75.4439 10.8095 75.4674 10.8219 75.4886C11.5399 78.4862 12.4886 81.4237 13.6598 84.2749C13.8426 84.7138 14.0363 85.1648 14.2182 85.5917C14.2419 85.6434 14.2688 85.6936 14.2984 85.7421C14.3044 85.7621 14.312 85.7815 14.3212 85.8003C12.571 85.8815 10.8228 85.6054 9.18284 84.9888C7.54294 84.3722 6.04582 83.4281 4.78279 82.2139C3.51977 80.9997 2.5173 79.541 1.83654 77.9266C1.15577 76.3123 0.810979 74.5763 0.823181 72.8243L0.930931 51.3726C1.11568 51.2245 1.28943 51.0744 1.47418 50.9263L1.48624 50.9144C1.49724 50.9144 1.50929 50.9035 1.52035 50.8915C1.53451 50.8706 1.55488 50.8546 1.57858 50.8458C1.59888 50.8202 1.62216 50.7972 1.64793 50.7772C4.41054 48.545 7.36803 46.5656 10.4847 44.8625C10.8889 44.6435 11.2939 44.4266 11.698 44.2206Z" fill="url(#paint1_linear_1_27)"/>
<path d="M35.8152 11.6053L71.5588 32.4791C73.1972 33.4257 74.6039 34.7257 75.6769 36.2842C76.7498 37.8428 77.462 39.6209 77.7616 41.4894C77.7599 41.5055 77.7637 41.5217 77.7724 41.5353C78.3019 44.7245 77.624 47.9966 75.8713 50.713C75.5267 50.4343 75.174 50.1565 74.8144 49.8897C74.8004 49.8763 74.785 49.8645 74.7686 49.8544C74.7457 49.8313 74.6999 49.7961 74.6421 49.7538C65.9259 43.1231 55.5416 39.0396 44.6437 37.9573C33.7457 36.8748 22.7612 38.836 12.9111 43.6226C12.5101 43.8206 12.1031 44.0186 11.698 44.2276C11.7682 43.9859 11.8505 43.7283 11.9207 43.4907L11.9328 43.4796C12.0853 42.9804 12.2487 42.5013 12.4121 42.0181C12.7056 41.1316 13.032 40.2572 13.3703 39.3949C13.5931 38.843 13.8149 38.29 14.0476 37.7492C14.3045 37.1635 14.5604 36.5879 14.8283 36.0132C15.0305 35.5872 15.2326 35.1731 15.4457 34.7483C15.6326 34.3692 15.8185 33.989 16.0164 33.621C16.2142 33.253 16.4121 32.8741 16.622 32.5062C16.8318 32.1382 17.0256 31.7822 17.2385 31.4092C17.4514 31.0363 17.6691 30.6854 17.8899 30.3295C18.1107 29.9736 18.3196 29.6047 18.5523 29.2608C18.785 28.917 19.0049 28.5481 19.2376 28.2032C19.4703 27.8584 19.7021 27.5146 19.9428 27.1698C20.1835 26.825 20.4303 26.4802 20.674 26.1474C21.115 25.5386 21.5801 24.93 22.044 24.3443C22.1135 24.2526 22.1829 24.1719 22.2403 24.0922C22.6116 23.632 22.9829 23.173 23.3772 22.726C23.4003 22.7031 23.4124 22.6801 23.4355 22.6573C23.5976 22.4501 23.7715 22.2588 23.9456 22.0487C24.2353 21.7169 24.5369 21.3851 24.8506 21.0532C24.9089 20.9845 24.9782 20.927 25.0356 20.8543C25.2217 20.6362 25.4298 20.4182 25.6389 20.2003C25.6781 20.1549 25.7208 20.1127 25.7665 20.0739C25.9053 19.9136 26.0561 19.7644 26.2069 19.6041C26.3919 19.3971 26.5889 19.2141 26.7978 19.0191C26.9366 18.8698 27.0873 18.7206 27.2381 18.5713C27.3074 18.5027 27.3767 18.4449 27.4461 18.3723C27.8521 17.9743 28.2691 17.5844 28.697 17.2026C28.8709 17.0314 29.0557 16.8704 29.2415 16.7104L29.2756 16.6755C29.6694 16.3205 30.0792 15.9655 30.4909 15.6325C30.5192 15.603 30.5505 15.5763 30.5843 15.5531C30.7852 15.3811 30.978 15.2201 31.1748 15.056C31.2089 15.0332 31.2321 14.9983 31.2672 14.9755C31.6839 14.6316 32.1117 14.2887 32.5513 13.9559L33.1416 13.5099C33.1878 13.4751 33.242 13.4294 33.2922 13.3957C33.79 13.0295 34.2992 12.663 34.8197 12.2963C34.8659 12.2615 34.9201 12.2278 34.9692 12.1971C35.0184 12.1663 35.0395 12.1403 35.0696 12.1175C35.3175 11.9367 35.5723 11.7771 35.8152 11.6053Z" fill="url(#paint2_linear_1_27)"/>
<path d="M39.0963 37.6615C51.946 37.7049 64.4289 41.9492 74.642 49.7473C74.6998 49.7936 74.7416 49.8287 74.7685 49.8478C74.7849 49.8579 74.8004 49.8698 74.8143 49.8831C75.171 50.1499 75.5266 50.4277 75.8712 50.7064C75.4557 51.345 74.9816 51.9435 74.4552 52.4943C74.4459 52.5046 74.4382 52.5159 74.432 52.5282L74.421 52.5281C73.5471 53.4366 72.5449 54.2121 71.4464 54.8303L20.1317 84.1119C19.2379 84.6219 18.2883 85.0272 17.3016 85.3197C17.2869 85.3256 17.2714 85.3296 17.2555 85.3314C16.301 85.6042 15.3172 85.7618 14.3251 85.8007C14.316 85.782 14.3084 85.7626 14.3024 85.7426C14.2882 85.7253 14.2765 85.7061 14.2677 85.6855C14.2575 85.6522 14.2422 85.6207 14.2222 85.5922C14.0403 85.1653 13.8466 84.7143 13.6638 84.2754C13.3912 83.6074 13.1278 82.9377 12.8739 82.2664C12.8393 82.1852 12.8167 82.1041 12.7831 82.0239C12.3165 80.7416 11.8851 79.4254 11.5028 78.0985C11.4694 77.9823 11.435 77.8551 11.4046 77.74C11.3843 77.6837 11.3693 77.6257 11.3595 77.5667C11.1629 76.8748 10.9974 76.1819 10.8279 75.489C10.8155 75.4679 10.8078 75.4443 10.8052 75.4199C10.5683 74.4187 10.3543 73.4126 10.1635 72.3856C10.1412 72.2465 10.1079 72.0973 10.0856 71.9582C10.0186 71.5659 9.95057 71.1735 9.8916 70.7702C9.87983 70.7243 9.8691 70.6701 9.85741 70.6091C9.79072 70.1477 9.73499 69.6974 9.6643 69.2361L9.59814 68.6708C9.53152 68.1975 9.48789 67.7252 9.44432 67.2409C9.3891 66.6867 9.33387 66.1334 9.30271 65.5682C9.28122 65.2681 9.25967 64.9801 9.26117 64.6811C9.23934 64.45 9.22855 64.2078 9.21869 63.9808C9.19738 63.6457 9.18711 63.3006 9.18885 62.9546C9.16852 62.3545 9.15987 61.7546 9.16289 61.1546C9.16752 60.2315 9.19515 59.3096 9.24672 58.3998C9.26045 57.8579 9.29816 57.3161 9.34682 56.7863C9.396 56.1526 9.44514 55.5299 9.5172 54.9203C9.56552 54.4585 9.62177 54.0097 9.68603 53.56C9.72154 53.2602 9.75811 52.9493 9.80561 52.6506C9.90079 52.0171 10.0076 51.3843 10.1261 50.7522C10.2293 50.1187 10.3635 49.4853 10.5046 48.863C10.6459 48.2067 10.7993 47.5395 10.9635 46.8943C11.1278 46.2491 11.3051 45.596 11.4923 44.949C11.5515 44.7073 11.6217 44.4657 11.6959 44.2241C12.097 44.0191 12.505 43.813 12.909 43.6191C21.0629 39.6431 30.0248 37.6042 39.0963 37.6615Z" fill="url(#paint3_linear_1_27)"/>
<g style="mix-blend-mode:multiply" opacity="0.3">
<path d="M34.9701 12.195C34.8547 12.2864 34.704 12.4126 34.5303 12.5508C34.0564 12.9394 33.3616 13.4899 32.4938 14.2346C31.6252 14.9562 30.6065 15.8961 29.46 16.9744C28.3474 18.0868 27.108 19.3716 25.8207 20.8171C24.5574 22.2748 23.2123 23.8821 21.9352 25.6857C19.1303 29.5642 16.7733 33.7478 14.9095 38.1565C14.4036 39.319 13.9647 40.5038 13.5437 41.6887C13.3326 42.3107 13.1103 42.9666 12.911 43.6106C12.724 44.2096 12.548 44.8088 12.3842 45.3719C11.0063 50.1961 10.2188 55.1695 10.0388 60.1833C9.96666 62.5014 10.0127 64.8217 10.1768 67.1351C10.3388 69.336 10.5934 71.4133 10.9178 73.3169C11.4351 76.4055 12.1826 79.4511 13.1541 82.4282C13.7676 84.3213 14.1998 85.4765 14.3024 85.742C14.2882 85.7247 14.2765 85.7055 14.2677 85.6849C8.63899 72.9385 7.62671 58.6293 11.4049 45.2174C15.1831 31.8055 23.5156 20.1289 34.9701 12.195Z" fill="black"/>
</g>
<g style="mix-blend-mode:overlay" opacity="0.3">
<path d="M35.2141 12.0055C35.1789 12.0403 35.1327 12.0741 35.0745 12.1208C35.0404 12.1436 35.0052 12.1774 34.9741 12.2003C34.362 12.6122 33.7488 13.0471 33.1465 13.5171L32.5562 13.9632C32.0935 14.3068 31.6306 14.6735 31.1797 15.0633C30.9789 15.2233 30.786 15.3843 30.5892 15.5603C30.1374 15.915 29.6854 16.3048 29.2463 16.7176C29.0605 16.8776 28.8757 17.0387 28.7019 17.2098C28.273 17.5767 27.845 17.9786 27.451 18.3796C27.2232 18.5818 27.0069 18.7965 26.8027 19.0223C26.3858 19.4122 25.9988 19.8023 25.6438 20.2035C25.4347 20.4215 25.2266 20.6394 25.0405 20.8575C24.6585 21.2476 24.2995 21.6538 23.9515 22.052C23.7774 22.2582 23.6035 22.4503 23.4414 22.6605C23.024 23.1304 22.6297 23.6014 22.2462 24.0955C22.1888 24.1752 22.1194 24.2559 22.0499 24.3475C21.5739 24.9451 21.1209 25.5429 20.6798 26.1507C20.4362 26.4834 20.1924 26.8282 19.9487 27.173C19.705 27.5178 19.4732 27.8616 19.2435 28.2065C19.0138 28.5513 18.779 28.9042 18.5582 29.264C18.3374 29.6239 18.1047 29.9618 17.8958 30.3327C17.663 30.6886 17.4542 31.0445 17.2444 31.4125C17.0345 31.7804 16.8257 32.1364 16.6279 32.5094C16.43 32.8824 16.2241 33.2454 16.0222 33.6244C15.8203 34.0034 15.6385 34.3724 15.4516 34.7515C15.2424 35.1765 15.0324 35.5904 14.8342 36.0164C14.5663 36.5911 14.3104 37.1668 14.0535 37.7525C13.2527 39.6259 12.5468 41.5385 11.9387 43.483L11.9266 43.4939C11.8564 43.7356 11.7741 43.9932 11.7039 44.2308C11.6337 44.4685 11.5635 44.7141 11.5003 44.9558C9.97303 50.2235 9.18898 55.6787 9.1708 61.1633C9.15654 63.8657 9.32405 66.566 9.67221 69.2459C9.79458 70.1685 9.92806 71.0682 10.0855 71.968C10.1078 72.1071 10.1411 72.2563 10.1634 72.3954C10.3582 73.4224 10.5682 74.4255 10.8052 75.4297C10.8077 75.4541 10.8154 75.4776 10.8278 75.4988C11.5457 78.4964 12.4946 81.434 13.6658 84.2852C13.8486 84.7241 14.0423 85.1751 14.2241 85.602L13.9163 84.9784C13.642 84.435 13.2431 83.626 12.7983 82.5728C11.554 79.6571 10.5588 76.6413 9.82356 73.5577C8.79777 69.1729 8.294 64.6821 8.32274 60.179C8.34135 57.6312 8.52383 55.0872 8.869 52.5627C9.24364 49.9668 9.78396 47.3976 10.4867 44.8707C10.4977 44.8588 10.4977 44.8588 10.4978 44.8478C10.8854 43.5347 11.2833 42.3517 11.7167 41.0958C12.1729 39.8531 12.6512 38.6105 13.1761 37.4261C14.1903 35.0942 15.3648 32.8354 16.6911 30.6657C17.918 28.6283 19.2795 26.6751 20.7665 24.8191C22.0888 23.1518 23.5054 21.5617 25.0095 20.0563C25.704 19.3598 26.3993 18.7143 27.0483 18.1075C27.7313 17.523 28.368 16.9722 28.9817 16.4452C30.2307 15.4605 31.33 14.601 32.2673 13.9487C33.1817 13.2623 33.968 12.8162 34.4747 12.4848C34.867 12.2228 35.1098 12.063 35.2141 12.0055Z" fill="white"/>
</g>
<g style="mix-blend-mode:multiply" opacity="0.3">
<path d="M39.0963 37.6611C51.946 37.7045 64.4289 41.9487 74.642 49.7468C74.6998 49.7931 74.7416 49.8283 74.7685 49.8474C74.6768 49.789 74.4355 49.6378 74.0708 49.3939C73.5883 49.0805 72.8747 48.6159 71.9565 48.0583C69.426 46.497 66.7863 45.1198 64.058 43.9376C62.3787 43.2031 60.5263 42.4788 58.5357 41.8098C56.445 41.122 54.3205 40.5419 52.1703 40.0718C49.8787 39.5681 47.5595 39.1984 45.2248 38.9649C44.0385 38.821 42.8397 38.7689 41.6412 38.6819C40.4082 38.6647 39.1985 38.6126 37.9873 38.6406C33.2156 38.6999 28.4665 39.3105 23.835 40.4605C21.6191 41.0254 19.5059 41.6718 17.5312 42.3879C15.5566 43.1039 13.7428 43.8688 12.0557 44.6664C11.8713 44.7575 11.6869 44.8375 11.5014 44.9396C9.00601 46.1232 6.59574 47.4784 4.28791 48.9954C2.82006 49.9571 1.87966 50.6323 1.57862 50.8378C1.59891 50.8122 1.62219 50.7893 1.64797 50.7692C4.76773 48.2501 8.13498 46.054 11.698 44.2146C12.099 44.0096 12.5071 43.8036 12.911 43.6097C21.065 39.6371 30.0262 37.6014 39.0963 37.6611Z" fill="black"/>
</g>
<g style="mix-blend-mode:overlay" opacity="0.3">
<path d="M37.9481 36.6978C39.2162 36.6702 40.4719 36.7335 41.6938 36.7626C42.9503 36.862 44.206 36.9253 45.4392 37.0935C47.8428 37.3616 50.2248 37.7973 52.5677 38.3973C54.7631 38.9352 56.9198 39.62 59.0235 40.4467C60.9105 41.166 62.7539 41.995 64.5441 42.9295C66.0551 43.7089 67.5244 44.5665 68.9463 45.4986C70.2101 46.335 71.3014 47.0785 72.162 47.7518C73.0469 48.3783 73.6779 48.9595 74.1371 49.3178C74.3672 49.5029 74.5275 49.6417 74.642 49.7463C65.9258 43.1157 55.5416 39.0322 44.6437 37.9499C33.7458 36.8674 22.7611 38.8286 12.911 43.6152C12.51 43.8132 12.103 44.0111 11.698 44.2201C8.13492 46.0595 4.76767 48.2556 1.64791 50.7747C1.74841 50.6752 1.92618 50.5221 2.13416 50.3271C2.57412 49.9383 3.20001 49.3645 4.05636 48.7007C6.41014 46.8204 8.91697 45.1401 11.5507 43.6773C11.678 43.609 11.7934 43.5405 11.9207 43.4792L11.9327 43.4682C13.5738 42.5666 15.2631 41.7555 16.993 41.0386C19.0774 40.1618 21.2139 39.414 23.3903 38.7997C25.7211 38.1449 28.0915 37.6408 30.487 37.2904C32.959 36.9358 35.4511 36.7378 37.9481 36.6978Z" fill="white"/>
</g>
<g style="mix-blend-mode:overlay" opacity="0.25">
<path d="M19.3777 4.67595L31.584 11.8034L31.1554 12.1242C30.6696 12.4898 30.1606 12.8912 29.6744 13.3168C29.5118 13.443 29.315 13.604 29.118 13.787C28.6107 14.1776 28.1239 14.5944 27.6598 15.0357C27.5091 15.1619 27.3243 15.334 27.1384 15.5061C26.6985 15.8839 26.2584 16.3017 25.8533 16.7096C25.5982 16.9389 25.3664 17.1685 25.1579 17.3981C24.7177 17.8219 24.3126 18.2349 23.9185 18.6599C23.7446 18.8431 23.5354 19.0729 23.3383 19.2909C22.9443 19.704 22.5742 20.1172 22.203 20.5413L22.017 20.7484C21.9012 20.8978 21.7855 21.0353 21.6699 21.1727C21.2294 21.6705 20.8229 22.1604 20.4173 22.6764L20.208 22.9404C19.744 23.538 19.2688 24.1577 18.8157 24.7894C18.572 25.1112 18.3393 25.456 18.0956 25.7858C17.8176 26.1844 17.5849 26.5321 17.3531 26.882C17.0741 27.2806 16.8302 27.6634 16.5862 28.0542C16.3847 28.3532 16.1448 28.732 15.9238 29.1339C15.6799 29.5017 15.459 29.8815 15.2381 30.2724L15.0868 30.5247C14.9243 30.8239 14.7499 31.111 14.5823 31.4102C14.3806 31.7552 14.1786 32.1452 13.9656 32.5481C13.7799 32.8932 13.593 33.2722 13.4071 33.6512L13.2444 33.9855C13.1434 34.192 13.0343 34.3995 12.9413 34.606C8.94658 37.9391 5.65772 42.0364 3.26767 46.6576L3.25561 46.6694L3.42079 13.7839C3.42635 11.9208 3.92311 10.0923 4.86096 8.48249C5.79881 6.87268 7.14459 5.53872 8.76255 4.61513C10.3805 3.69145 12.2135 3.21085 14.0764 3.22171C15.9394 3.23257 17.7666 3.73445 19.3737 4.67693L19.3777 4.67595Z" fill="white"/>
</g>
<g style="mix-blend-mode:overlay" opacity="0.25">
<path d="M65.2128 31.4414C45.43 22.7999 31.1855 24.4574 21.3879 29.1343C21.538 28.916 21.678 28.7097 21.829 28.5025C22.0839 28.1357 22.3165 27.8139 22.5341 27.506C22.963 26.9201 23.404 26.3343 23.8427 25.7835C23.8427 25.7835 24.0521 25.5186 24.1095 25.4389C24.3993 25.0713 24.7706 24.6232 25.1538 24.1871L25.2463 24.0876C25.3388 23.973 25.4314 23.8585 25.5249 23.755L25.71 23.5369C25.9998 23.1924 26.3246 22.826 26.6724 22.4697L26.788 22.3553C26.9499 22.1721 27.1238 21.988 27.2978 21.7929C27.6688 21.4027 28.0166 21.0475 28.3984 20.6804L28.4989 20.5809C28.6486 20.4119 28.8073 20.2511 28.9743 20.0992C29.4376 19.6526 29.8194 19.2965 30.2132 18.9415L30.3136 18.85C30.4442 18.7184 30.5834 18.5959 30.7305 18.4831C31.1936 18.0584 31.6105 17.6875 32.0272 17.3486C32.2702 17.1498 32.4439 17.0046 32.6176 16.8675C33.0688 16.4885 33.5086 16.1333 33.937 15.8021L34.5152 15.367C34.9779 15.0343 35.4406 14.6907 35.9203 14.3481L65.2128 31.4414Z" fill="white"/>
</g>
<g style="mix-blend-mode:overlay" opacity="0.5">
<path d="M20.5407 2.68737L35.8151 11.6052L71.5587 32.479C73.1971 33.4257 74.6038 34.7256 75.6768 36.2842C76.7498 37.8428 77.462 39.6209 77.7615 41.4893C77.7047 41.247 77.6145 40.8885 77.4897 40.4509C76.9883 38.7294 76.1303 37.1327 74.9714 35.7644C73.8127 34.3961 72.3789 33.287 70.7635 32.509C68.5107 31.2757 65.9697 29.8799 63.2112 28.371C57.6825 25.3112 51.2686 21.706 44.4061 17.7984C41.303 16.0188 38.0961 14.1927 34.8335 12.3203L34.8225 12.3092C34.8053 12.3063 34.7893 12.2982 34.7767 12.286C34.4655 12.1114 34.1674 11.9369 33.8563 11.7624C30.2827 9.68139 26.6382 7.57706 22.9958 5.46074L20.2828 3.86709C19.4394 3.36585 18.545 2.95575 17.6149 2.64367C15.8148 2.04682 13.896 1.89988 12.026 2.21559C10.1684 2.54357 8.41024 3.29165 6.88591 4.40281C5.39712 5.49605 4.19209 6.93021 3.37186 8.58521C2.57825 10.1881 2.13642 11.9421 2.07601 13.7298C2.03246 15.6296 1.98814 17.4864 1.9561 19.2852C1.86892 22.9038 1.78273 26.3264 1.69793 29.4731C1.5392 35.7893 1.3048 41.0442 1.18333 44.7207L0.935269 50.5065L1.11979 13.771C1.12802 11.5036 1.73374 9.27839 2.87591 7.3196C4.01808 5.36091 5.65635 3.73782 7.62563 2.614C9.59492 1.49008 11.8256 0.905172 14.093 0.918061C16.3604 0.93085 18.5843 1.54113 20.5407 2.68737Z" fill="white"/>
</g>
<g style="mix-blend-mode:multiply" opacity="0.3">
<path d="M74.4211 52.5238C73.5471 53.4321 72.545 54.2077 71.4464 54.8259L20.1317 84.1115C19.2379 84.6216 18.2883 85.0268 17.3016 85.3193C17.2869 85.3252 17.2714 85.3292 17.2555 85.3311C17.2555 85.3311 17.498 85.2403 17.937 85.0345C18.5634 84.7412 19.1668 84.4013 19.7422 84.0176C21.2343 82.999 23.3737 81.5358 25.9761 79.8648C28.5776 78.1719 31.6423 76.2502 34.9604 74.2499C36.6254 73.2672 38.3137 72.2037 40.0819 71.1866C41.85 70.1695 43.6203 69.1293 45.3974 68.1012C47.2026 67.0843 49.0076 66.0793 50.7727 65.0852C52.5377 64.0911 54.3214 63.155 56.0201 62.2295C59.4294 60.3906 62.6307 58.7357 65.4157 57.3547C66.7912 56.6616 68.0744 56.031 69.2181 55.4947C70.3389 54.9244 71.3671 54.4915 72.1252 54.0803C72.7312 53.7449 73.3146 53.3703 73.8719 52.9591C74.1659 52.7415 74.3518 52.5815 74.4211 52.5238Z" fill="black"/>
</g>
</g>
<defs>
<linearGradient id="paint0_linear_1_27" x1="18.2746" y1="51.4705" x2="18.5284" y2="0.942543" gradientUnits="userSpaceOnUse">
<stop stop-color="#A64DFF"/>
<stop offset="0.179" stop-color="#B366FF"/>
<stop offset="0.34" stop-color="#BF80FF"/>
<stop offset="0.493" stop-color="#9F19E7"/>
<stop offset="0.641" stop-color="#B019E7"/>
<stop offset="0.787" stop-color="#C019E7"/>
<stop offset="0.928" stop-color="#6419B3"/>
<stop offset="1" stop-color="#4A1980"/>
</linearGradient>
<linearGradient id="paint1_linear_1_27" x1="7.53966" y1="85.7833" x2="7.74853" y2="44.2007" gradientUnits="userSpaceOnUse">
<stop stop-color="#A64DFF"/>
<stop offset="0.179" stop-color="#B366FF"/>
<stop offset="0.34" stop-color="#BF80FF"/>
<stop offset="0.493" stop-color="#9F19E7"/>
<stop offset="0.641" stop-color="#B019E7"/>
<stop offset="0.787" stop-color="#C019E7"/>
<stop offset="0.928" stop-color="#6419B3"/>
<stop offset="1" stop-color="#4A1980"/>
</linearGradient>
<linearGradient id="paint2_linear_1_27" x1="44.7899" y1="50.5569" x2="44.9853" y2="11.6514" gradientUnits="userSpaceOnUse">
<stop stop-color="#A64DFF"/>
<stop offset="0.179" stop-color="#B366FF"/>
<stop offset="0.34" stop-color="#BF80FF" stop-opacity="0.976471"/>
<stop offset="0.493" stop-color="#9F19E7"/>
<stop offset="0.641" stop-color="#B019E7"/>
<stop offset="0.787" stop-color="#C019E7"/>
<stop offset="0.928" stop-color="#6419B3"/>
<stop offset="1" stop-color="#4A1980"/>
</linearGradient>
<linearGradient id="paint3_linear_1_27" x1="42.3663" y1="85.9416" x2="42.6087" y2="37.6792" gradientUnits="userSpaceOnUse">
<stop stop-color="#A64DFF"/>
<stop offset="0.179" stop-color="#B366FF"/>
<stop offset="0.34" stop-color="#BF80FF"/>
<stop offset="0.493" stop-color="#9F19E7"/>
<stop offset="0.641" stop-color="#B019E7"/>
<stop offset="0.787" stop-color="#C019E7"/>
<stop offset="0.928" stop-color="#6419B3"/>
<stop offset="1" stop-color="#4A1980"/>
</linearGradient>
</defs>
</svg>
